<?xml version="1.0"?>
<?xml-stylesheet type="text/css" href="FocusGraph.css" ?>
<!DOCTYPE svg PUBLIC "-//W3C//DTD SVG 1.1//EN" "http://www.w3.org/Graphics/SVG/1.1/DTD/svg11.dtd">
<svg xmlns="http://www.w3.org/2000/svg" version="1.1" width="826.5" height="101.25">
<defs>
<marker id="arrowStart" markerWidth="3.75" markerHeight="3.75" markerUnits="px" refX="1.875" refY="1.875">
<circle fill="Black" stroke-width="0" cx="1.875" cy="1.875" r="1.875" />
</marker>
<marker id="arrowEnd" markerWidth="7.5" markerHeight="7.5" markerUnits="px" refX="7.5" refY="3.75">
<polygon fill="Black" stroke-width="0" points="0 0 7.5 3.75 0 7.5" />
</marker>
</defs>
<g>
<g transform="translate(7.5 7.5)">
<rect class="profile" fill="White" stroke="Black" stroke-width="1.875" x="0" y="0" width="130.5" height="71.25" rx="3.75" ry="3.75" />
<text x="65.25" y="22.5" text-anchor="middle" class="profile">Breast</text>
<text x="65.25" y="41.25" text-anchor="middle" class="profile">Radiology</text>
<text x="65.25" y="60" text-anchor="middle" class="profile">Composition</text>
</g>
<line stroke="Black" stroke-width="1.875" marker-end="url(#arrowEnd)" x1="183" y1="24.375" x2="228" y2="24.375" />
<text x="186.75" y="20.625" text-anchor="left">0..1</text>
<line stroke="Black" stroke-width="1.875" marker-start="url(#arrowStart)" x1="138" y1="43.125" x2="183" y2="43.125" />
<text x="141.75" y="39.375" text-anchor="left"></text>
<line stroke="Black" stroke-width="1.875" x1="183" y1="24.375" x2="183" y2="43.125" />
</g>
<g>
<g transform="translate(228 7.5)">
<rect class="focus" fill="White" stroke="Black" stroke-width="1.875" x="0" y="0" width="214.5" height="33.75" rx="3.75" ry="3.75" />
<text x="107.25" y="22.5" text-anchor="middle" class="focus">Impressions Section</text>
</g>
<line stroke="Black" stroke-width="1.875" marker-end="url(#arrowEnd)" x1="487.5" y1="24.375" x2="532.5" y2="24.375" />
<text x="491.25" y="20.625" text-anchor="left"></text>
<line stroke="Black" stroke-width="1.875" marker-start="url(#arrowStart)" x1="442.5" y1="24.375" x2="487.5" y2="24.375" />
<text x="446.25" y="20.625" text-anchor="left">0..*</text>
<line stroke="Black" stroke-width="1.875" x1="487.5" y1="24.375" x2="487.5" y2="24.375" />
</g>
<g>
<g transform="translate(532.5 7.5)">
<rect class="baseResource" fill="White" stroke="Black" stroke-width="1.875" x="0" y="0" width="203.99998" height="33.75" rx="3.75" ry="3.75" />
<text x="101.99999" y="22.5" text-anchor="middle" class="baseResource">ClinicalImpression</text>
</g>
</g>
</svg>
