<?xml version="1.0"?>
<?xml-stylesheet type="text/css" href="FocusGraph.css" ?>
<!DOCTYPE svg PUBLIC "-//W3C//DTD SVG 1.1//EN" "http://www.w3.org/Graphics/SVG/1.1/DTD/svg11.dtd">
<svg xmlns="http://www.w3.org/2000/svg" version="1.1" width="690" height="101.25">
<defs>
<marker id="arrowStart" markerWidth="3.75" markerHeight="3.75" markerUnits="px" refX="1.875" refY="1.875">
<circle fill="Black" stroke-width="0" cx="1.875" cy="1.875" r="1.875" />
</marker>
<marker id="arrowEnd" markerWidth="7.5" markerHeight="7.5" markerUnits="px" refX="7.5" refY="3.75">
<polygon fill="Black" stroke-width="0" points="0 0 7.5 3.75 0 7.5" />
</marker>
</defs>
<g>
<g transform="translate(7.5 7.5)">
<rect class="profile" fill="White" stroke="Black" stroke-width="1.875" x="0" y="0" width="130.5" height="71.25" rx="3.75" ry="3.75" />
<text x="65.25" y="22.5" text-anchor="middle" class="profile">Breast</text>
<text x="65.25" y="41.25" text-anchor="middle" class="profile">Radiology</text>
<text x="65.25" y="60" text-anchor="middle" class="profile">Composition</text>
</g>
<line stroke="Black" stroke-width="1.875" marker-end="url(#arrowEnd)" x1="183" y1="43.125" x2="228" y2="43.125" />
<text x="186.75" y="39.375" text-anchor="left">0..1</text>
<line stroke="Black" stroke-width="1.875" marker-start="url(#arrowStart)" x1="138" y1="43.125" x2="183" y2="43.125" />
<text x="141.75" y="39.375" text-anchor="left"></text>
<line stroke="Black" stroke-width="1.875" x1="183" y1="43.125" x2="183" y2="43.125" />
</g>
<g>
<g transform="translate(228 7.5)">
<rect class="focus" fill="White" stroke="Black" stroke-width="1.875" x="0" y="0" width="141" height="71.25" rx="3.75" ry="3.75" />
<text x="70.5" y="22.5" text-anchor="middle" class="focus">Findings</text>
<text x="70.5" y="41.25" text-anchor="middle" class="focus">Right Breast</text>
<text x="70.5" y="60" text-anchor="middle" class="focus">Section</text>
</g>
<line stroke="Black" stroke-width="1.875" marker-end="url(#arrowEnd)" x1="413.99997" y1="33.75" x2="458.99997" y2="33.75" />
<text x="417.74997" y="30" text-anchor="left"></text>
<line stroke="Black" stroke-width="1.875" marker-start="url(#arrowStart)" x1="368.99997" y1="43.125" x2="413.99997" y2="43.125" />
<text x="372.74997" y="39.375" text-anchor="left">0..*</text>
<line stroke="Black" stroke-width="1.875" x1="413.99997" y1="33.75" x2="413.99997" y2="43.125" />
</g>
<g>
<g transform="translate(458.99997 7.5)">
<rect class="profile" fill="White" stroke="Black" stroke-width="1.875" x="0" y="0" width="141" height="52.5" rx="3.75" ry="3.75" />
<text x="70.5" y="22.5" text-anchor="middle" class="profile">Findings</text>
<text x="70.5" y="41.25" text-anchor="middle" class="profile">Right Breast</text>
</g>
</g>
</svg>
