<?xml version="1.0"?>
<?xml-stylesheet type="text/css" href="FocusGraph.css" ?>
<!DOCTYPE svg PUBLIC "-//W3C//DTD SVG 1.1//EN" "http://www.w3.org/Graphics/SVG/1.1/DTD/svg11.dtd">
<svg xmlns="http://www.w3.org/2000/svg" version="1.1" width="532.5" height="262.5">
<defs>
<marker id="arrowStart" markerWidth="3.75" markerHeight="3.75" markerUnits="px" refX="1.875" refY="1.875">
<circle fill="Black" stroke-width="0" cx="1.875" cy="1.875" r="1.875" />
</marker>
<marker id="arrowEnd" markerWidth="7.5" markerHeight="7.5" markerUnits="px" refX="7.5" refY="3.75">
<polygon fill="Black" stroke-width="0" points="0 0 7.5 3.75 0 7.5" />
</marker>
</defs>
<g>
<g transform="translate(7.5 7.5)">
<rect class="focus" fill="White" stroke="Black" stroke-width="1.875" x="0" y="0" width="130.5" height="71.25" rx="3.75" ry="3.75" />
<text x="65.25" y="22.5" text-anchor="middle" class="focus">Breast</text>
<text x="65.25" y="41.25" text-anchor="middle" class="focus">Radiology</text>
<text x="65.25" y="60" text-anchor="middle" class="focus">Composition</text>
</g>
<line stroke="Black" stroke-width="1.875" marker-end="url(#arrowEnd)" x1="183" y1="24.375" x2="228" y2="24.375" />
<text x="186.75" y="20.625" text-anchor="left">1..1</text>
<line stroke="Black" stroke-width="1.875" marker-end="url(#arrowEnd)" x1="183" y1="65.625" x2="228" y2="65.625" />
<text x="186.75" y="61.875" text-anchor="left">0..1</text>
<line stroke="Black" stroke-width="1.875" marker-end="url(#arrowEnd)" x1="183" y1="125.625" x2="228" y2="125.625" />
<text x="186.75" y="121.875" text-anchor="left">0..1</text>
<line stroke="Black" stroke-width="1.875" marker-end="url(#arrowEnd)" x1="183" y1="204.375" x2="228" y2="204.375" />
<text x="186.75" y="200.625" text-anchor="left">0..1</text>
<line stroke="Black" stroke-width="1.875" marker-start="url(#arrowStart)" x1="138" y1="43.125" x2="183" y2="43.125" />
<text x="141.75" y="39.375" text-anchor="left"></text>
<line stroke="Black" stroke-width="1.875" x1="183" y1="24.375" x2="183" y2="204.375" />
</g>
<g>
<g transform="translate(228 7.5)">
<rect class="element" fill="White" stroke="Black" stroke-width="1.875" x="0" y="0" width="162" height="33.75" rx="3.75" ry="3.75" />
<text x="81" y="22.5" text-anchor="middle" class="element">Report Section</text>
</g>
</g>
<g>
<g transform="translate(228 48.75)">
<rect class="element" fill="White" stroke="Black" stroke-width="1.875" x="0" y="0" width="214.5" height="33.75" rx="3.75" ry="3.75" />
<text x="107.25" y="22.5" text-anchor="middle" class="element">Impressions Section</text>
</g>
</g>
<g>
<g transform="translate(228 90)">
<rect class="element" fill="White" stroke="Black" stroke-width="1.875" x="0" y="0" width="141" height="71.25" rx="3.75" ry="3.75" />
<text x="70.5" y="22.5" text-anchor="middle" class="element">Findings</text>
<text x="70.5" y="41.25" text-anchor="middle" class="element">Right Breast</text>
<text x="70.5" y="60" text-anchor="middle" class="element">Section</text>
</g>
</g>
<g>
<g transform="translate(228 168.75)">
<rect class="element" fill="White" stroke="Black" stroke-width="1.875" x="0" y="0" width="130.5" height="71.25" rx="3.75" ry="3.75" />
<text x="65.25" y="22.5" text-anchor="middle" class="element">Findings</text>
<text x="65.25" y="41.25" text-anchor="middle" class="element">Left Breast</text>
<text x="65.25" y="60" text-anchor="middle" class="element">Section</text>
</g>
</g>
</svg>
