<?xml version="1.0"?>
<?xml-stylesheet type="text/css" href="FocusGraph.css" ?>
<!DOCTYPE svg PUBLIC "-//W3C//DTD SVG 1.1//EN" "http://www.w3.org/Graphics/SVG/1.1/DTD/svg11.dtd">
<svg xmlns="http://www.w3.org/2000/svg" version="1.1" width="774" height="82.5">
<defs>
<marker id="arrowStart" markerWidth="3.75" markerHeight="3.75" markerUnits="px" refX="1.875" refY="1.875">
<circle fill="Black" stroke-width="0" cx="1.875" cy="1.875" r="1.875" />
</marker>
<marker id="arrowEnd" markerWidth="7.5" markerHeight="7.5" markerUnits="px" refX="7.5" refY="3.75">
<polygon fill="Black" stroke-width="0" points="0 0 7.5 3.75 0 7.5" />
</marker>
</defs>
<g>
<g transform="translate(7.5 7.5)">
<rect class="element" fill="White" stroke="Black" stroke-width="1.875" x="0" y="0" width="162" height="33.75" rx="3.75" ry="3.75" />
<text x="81" y="22.5" text-anchor="middle" class="element">Report Section</text>
</g>
<line stroke="Black" stroke-width="1.875" marker-end="url(#arrowEnd)" x1="214.5" y1="24.375" x2="259.5" y2="24.375" />
<text x="218.25" y="20.625" text-anchor="left"></text>
<line stroke="Black" stroke-width="1.875" marker-start="url(#arrowStart)" x1="169.5" y1="24.375" x2="214.5" y2="24.375" />
<text x="173.25" y="20.625" text-anchor="left">1..1</text>
<line stroke="Black" stroke-width="1.875" x1="214.5" y1="24.375" x2="214.5" y2="24.375" />
</g>
<g>
<g transform="translate(259.5 7.5)">
<rect class="focus" fill="White" stroke="Black" stroke-width="1.875" x="0" y="0" width="78" height="33.75" rx="3.75" ry="3.75" />
<text x="39" y="22.5" text-anchor="middle" class="focus">Report</text>
</g>
<line stroke="Black" stroke-width="1.875" marker-end="url(#arrowEnd)" x1="382.5" y1="24.375" x2="427.5" y2="24.375" />
<text x="386.25" y="20.625" text-anchor="left">1..1</text>
<line stroke="Black" stroke-width="1.875" marker-start="url(#arrowStart)" x1="337.5" y1="24.375" x2="382.5" y2="24.375" />
<text x="341.25" y="20.625" text-anchor="left"></text>
<line stroke="Black" stroke-width="1.875" x1="382.5" y1="24.375" x2="382.5" y2="24.375" />
</g>
<g>
<g transform="translate(427.5 7.5)">
<rect class="element" fill="White" stroke="Black" stroke-width="1.875" x="0" y="0" width="57" height="33.75" rx="3.75" ry="3.75" />
<text x="28.5" y="22.5" text-anchor="middle" class="element">Code</text>
</g>
<line stroke="Black" stroke-width="1.875" marker-end="url(#arrowEnd)" x1="529.5" y1="33.75" x2="574.5" y2="33.75" />
<text x="533.25" y="30" text-anchor="left">pattern </text>
<line stroke="Black" stroke-width="1.875" marker-start="url(#arrowStart)" x1="484.5" y1="24.375" x2="529.5" y2="24.375" />
<text x="488.25" y="20.625" text-anchor="left"></text>
<line stroke="Black" stroke-width="1.875" x1="529.5" y1="24.375" x2="529.5" y2="33.75" />
</g>
<g>
<g transform="translate(574.5 7.5)">
<a href="http://loinc.org" target="_top">
<rect fill="White" stroke="Black" stroke-width="1.875" x="0" y="0" width="109.49999" height="52.5" rx="3.75" ry="3.75" />
</a>
<a href="http://loinc.org" target="_top">
<text x="54.749996" y="22.5" text-anchor="middle">10193-1</text>
</a>
<a href="http://loinc.org" target="_top">
<text x="54.749996" y="41.25" text-anchor="middle">loinc.org</text>
</a>
</g>
</g>
</svg>
