<?xml version="1.0"?>
<?xml-stylesheet type="text/css" href="FocusGraph.css" ?>
<!DOCTYPE svg PUBLIC "-//W3C//DTD SVG 1.1//EN" "http://www.w3.org/Graphics/SVG/1.1/DTD/svg11.dtd">
<svg xmlns="http://www.w3.org/2000/svg" version="1.1" width="684.86" height="356.25">
<defs>
<marker id="arrowStart" markerWidth="3.75" markerHeight="3.75" markerUnits="px" refX="1.88" refY="1.88">
<circle class="connector" cx="1.88" cy="1.88" r="1.88" />
</marker>
<marker id="arrowEnd" markerWidth="7.5" markerHeight="7.5" markerUnits="px" refX="7.5" refY="3.75">
<polygon class="connector" points="0 0 7.5 3.75 0 7.5" />
</marker>
</defs>
<g>
<g transform="translate(3.75 3.75)">
<a href="StructureDefinition-BreastRadiologyDocument.html" target="_top">
<rect class="profile" x="0" y="0" width="87.93" height="63.75" rx="3.75" ry="3.75" />
</a>
<a href="StructureDefinition-BreastRadiologyDocument.html" target="_top">
<text x="5.62" y="18.75" text-anchor="left" class="profile">Breast</text>
</a>
<a href="StructureDefinition-BreastRadiologyDocument.html" target="_top">
<text x="5.62" y="37.5" text-anchor="left" class="profile">Radiology</text>
</a>
<a href="StructureDefinition-BreastRadiologyDocument.html" target="_top">
<text x="5.62" y="56.25" text-anchor="left" class="profile">Document</text>
</a>
</g>
<line class="connector" marker-end="url(#arrowEnd)" x1="121.68" y1="35.62" x2="181.68" y2="35.62" />
<text x="125.43" y="31.88" text-anchor="right" class="lhsText">1..1</text>
<line class="connector" marker-start="url(#arrowStart)" x1="91.68" y1="35.62" x2="121.68" y2="35.62" />
<line class="connector" x1="121.68" y1="35.62" x2="121.68" y2="35.62" />
</g>
<g>
<g transform="translate(181.68 3.75)">
<a href="StructureDefinition-BreastRadiologyComposition.html" target="_top">
<rect class="focus" x="0" y="0" width="104.43" height="63.75" rx="3.75" ry="3.75" />
</a>
<a href="StructureDefinition-BreastRadiologyComposition.html" target="_top">
<text x="5.62" y="18.75" text-anchor="left" class="focus">Breast</text>
</a>
<a href="StructureDefinition-BreastRadiologyComposition.html" target="_top">
<text x="5.62" y="37.5" text-anchor="left" class="focus">Radiology</text>
</a>
<a href="StructureDefinition-BreastRadiologyComposition.html" target="_top">
<text x="5.62" y="56.25" text-anchor="left" class="focus">Composition</text>
</a>
</g>
<line class="connector" marker-end="url(#arrowEnd)" x1="316.11" y1="16.88" x2="376.11" y2="16.88" />
<text x="319.86" y="13.12" text-anchor="right" class="lhsText">1..*</text>
<line class="connector" marker-start="url(#arrowStart)" x1="286.11" y1="35.62" x2="316.11" y2="35.62" />
<line class="connector" x1="316.11" y1="16.88" x2="316.11" y2="35.62" />
</g>
<g>
<g transform="translate(376.11 3.75)">
<a href="StructureDefinition-BreastRadiologyComposition-definitions.html#Composition.section" target="_top">
<rect class="element" x="0" y="0" width="76.04" height="26.25" rx="3.75" ry="3.75" />
</a>
<a href="StructureDefinition-BreastRadiologyComposition-definitions.html#Composition.section" target="_top">
<text x="5.62" y="18.75" text-anchor="left" class="element">Sections</text>
</a>
</g>
<line class="connector" marker-end="url(#arrowEnd)" x1="482.16" y1="16.88" x2="542.16" y2="16.88" />
<text x="485.91" y="13.12" text-anchor="right" class="lhsText">1..1</text>
<line class="connector" marker-end="url(#arrowEnd)" x1="482.16" y1="50.62" x2="542.16" y2="50.62" />
<text x="485.91" y="46.88" text-anchor="right" class="lhsText">0..1</text>
<line class="connector" marker-end="url(#arrowEnd)" x1="482.16" y1="84.38" x2="542.16" y2="84.38" />
<text x="485.91" y="80.62" text-anchor="right" class="lhsText">0..1</text>
<line class="connector" marker-end="url(#arrowEnd)" x1="482.16" y1="118.12" x2="542.16" y2="118.12" />
<text x="485.91" y="114.38" text-anchor="right" class="lhsText">0..1</text>
<line class="connector" marker-end="url(#arrowEnd)" x1="482.16" y1="151.88" x2="542.16" y2="151.88" />
<text x="485.91" y="148.12" text-anchor="right" class="lhsText">0..1</text>
<line class="connector" marker-end="url(#arrowEnd)" x1="482.16" y1="185.62" x2="542.16" y2="185.62" />
<text x="485.91" y="181.88" text-anchor="right" class="lhsText">0..1</text>
<line class="connector" marker-end="url(#arrowEnd)" x1="482.16" y1="219.38" x2="542.16" y2="219.38" />
<text x="485.91" y="215.62" text-anchor="right" class="lhsText">0..1</text>
<line class="connector" marker-start="url(#arrowStart)" x1="452.16" y1="16.88" x2="482.16" y2="16.88" />
<line class="connector" x1="482.16" y1="16.88" x2="482.16" y2="219.38" />
</g>
<g>
<g transform="translate(542.16 3.75)">
<a href="StructureDefinition-BreastRadiologyComposition-definitions.html#Composition.section:report" target="_top">
<rect class="element" x="0" y="0" width="110.83" height="26.25" rx="3.75" ry="3.75" />
</a>
<a href="StructureDefinition-BreastRadiologyComposition-definitions.html#Composition.section:report" target="_top">
<text x="5.62" y="18.75" text-anchor="left" class="element">DisplayName</text>
</a>
</g>
</g>
<g>
<g transform="translate(542.16 37.5)">
<a href="StructureDefinition-BreastRadiologyComposition-definitions.html#Composition.section:findingsRightBreast" target="_top">
<rect class="element" x="0" y="0" width="110.83" height="26.25" rx="3.75" ry="3.75" />
</a>
<a href="StructureDefinition-BreastRadiologyComposition-definitions.html#Composition.section:findingsRightBreast" target="_top">
<text x="5.62" y="18.75" text-anchor="left" class="element">DisplayName</text>
</a>
</g>
</g>
<g>
<g transform="translate(542.16 71.25)">
<a href="StructureDefinition-BreastRadiologyComposition-definitions.html#Composition.section:recommendations" target="_top">
<rect class="element" x="0" y="0" width="110.83" height="26.25" rx="3.75" ry="3.75" />
</a>
<a href="StructureDefinition-BreastRadiologyComposition-definitions.html#Composition.section:recommendations" target="_top">
<text x="5.62" y="18.75" text-anchor="left" class="element">DisplayName</text>
</a>
</g>
</g>
<g>
<g transform="translate(542.16 105)">
<a href="StructureDefinition-BreastRadiologyComposition-definitions.html#Composition.section:findingsBiLateralBreast" target="_top">
<rect class="element" x="0" y="0" width="110.83" height="26.25" rx="3.75" ry="3.75" />
</a>
<a href="StructureDefinition-BreastRadiologyComposition-definitions.html#Composition.section:findingsBiLateralBreast" target="_top">
<text x="5.62" y="18.75" text-anchor="left" class="element">DisplayName</text>
</a>
</g>
</g>
<g>
<g transform="translate(542.16 138.75)">
<a href="StructureDefinition-BreastRadiologyComposition-definitions.html#Composition.section:relatedResources" target="_top">
<rect class="element" x="0" y="0" width="110.83" height="26.25" rx="3.75" ry="3.75" />
</a>
<a href="StructureDefinition-BreastRadiologyComposition-definitions.html#Composition.section:relatedResources" target="_top">
<text x="5.62" y="18.75" text-anchor="left" class="element">DisplayName</text>
</a>
</g>
</g>
<g>
<g transform="translate(542.16 172.5)">
<a href="StructureDefinition-BreastRadiologyComposition-definitions.html#Composition.section:findingsLeftBreast" target="_top">
<rect class="element" x="0" y="0" width="110.83" height="26.25" rx="3.75" ry="3.75" />
</a>
<a href="StructureDefinition-BreastRadiologyComposition-definitions.html#Composition.section:findingsLeftBreast" target="_top">
<text x="5.62" y="18.75" text-anchor="left" class="element">DisplayName</text>
</a>
</g>
</g>
<g>
<g transform="translate(542.16 206.25)">
<a href="StructureDefinition-BreastRadiologyComposition-definitions.html#Composition.section:impressions" target="_top">
<rect class="element" x="0" y="0" width="110.83" height="26.25" rx="3.75" ry="3.75" />
</a>
<a href="StructureDefinition-BreastRadiologyComposition-definitions.html#Composition.section:impressions" target="_top">
<text x="5.62" y="18.75" text-anchor="left" class="element">DisplayName</text>
</a>
</g>
</g>
<g>
<g transform="translate(3.75 315)">
<rect class="focus" x="0" y="0" width="57.72" height="26.25" rx="3.75" ry="3.75" />
<text x="5.62" y="18.75" text-anchor="left" class="focus">Focus</text>
</g>
<g transform="translate(68.97 315)">
<rect class="profile" x="0" y="0" width="143.81" height="26.25" rx="3.75" ry="3.75" />
<text x="5.62" y="18.75" text-anchor="left" class="profile">Profiled Resource</text>
</g>
<g transform="translate(220.28 315)">
<rect class="element" x="0" y="0" width="148.39" height="26.25" rx="3.75" ry="3.75" />
<text x="5.62" y="18.75" text-anchor="left" class="element">Resource Element</text>
</g>
</g>
</svg>
