<?xml version="1.0"?>
<?xml-stylesheet type="text/css" href="FocusGraph.css" ?>
<!DOCTYPE svg PUBLIC "-//W3C//DTD SVG 1.1//EN" "http://www.w3.org/Graphics/SVG/1.1/DTD/svg11.dtd">
<svg xmlns="http://www.w3.org/2000/svg" version="1.1" width="546.38" height="213.75">
<defs>
<marker id="arrowStart" markerWidth="3.75" markerHeight="3.75" markerUnits="px" refX="1.88" refY="1.88">
<circle class="connector" cx="1.88" cy="1.88" r="1.88" />
</marker>
<marker id="arrowEnd" markerWidth="7.5" markerHeight="7.5" markerUnits="px" refX="7.5" refY="3.75">
<polygon class="connector" points="0 0 7.5 3.75 0 7.5" />
</marker>
</defs>
<g>
<g transform="translate(7.5 7.5)">
<a href="StructureDefinition-BreastMedicationRequest.html" target="_top">
<rect class="profile" x="0" y="0" width="204" height="33.75" rx="3.75" ry="3.75" />
</a>
<a href="StructureDefinition-BreastMedicationRequest.html" target="_top">
<text x="102" y="22.5" text-anchor="middle" class="profile">Medication Request</text>
</a>
</g>
<g transform="translate(7.5 48.75)">
<a href="StructureDefinition-BreastServiceRequest.html" target="_top">
<rect class="profile" x="0" y="0" width="172.5" height="33.75" rx="3.75" ry="3.75" />
</a>
<a href="StructureDefinition-BreastServiceRequest.html" target="_top">
<text x="86.25" y="22.5" text-anchor="middle" class="profile">Service Request</text>
</a>
</g>
<line class="connector" marker-end="url(#arrowEnd)" x1="241.5" y1="24.38" x2="271.5" y2="24.38" />
<line class="connector" marker-start="url(#arrowStart)" x1="211.5" y1="24.38" x2="241.5" y2="24.38" />
<line class="connector" marker-start="url(#arrowStart)" x1="180" y1="65.62" x2="241.5" y2="65.62" />
<line class="connector" x1="241.5" y1="24.38" x2="241.5" y2="65.62" />
</g>
<g>
<g transform="translate(271.5 7.5)">
<a href="StructureDefinition-BreastLateralityExtension.html" target="_top">
<rect class="focus" x="0" y="0" width="183" height="33.75" rx="3.75" ry="3.75" />
</a>
<a href="StructureDefinition-BreastLateralityExtension.html" target="_top">
<text x="91.5" y="22.5" text-anchor="middle" class="focus">BreastLaterality</text>
</a>
</g>
</g>
<g>
<g transform="translate(7.5 165)">
<rect class="focus" x="0" y="0" width="67.5" height="33.75" rx="3.75" ry="3.75" />
<text x="33.75" y="22.5" text-anchor="middle" class="focus">Focus</text>
</g>
<g transform="translate(82.5 165)">
<rect class="profile" x="0" y="0" width="193.5" height="33.75" rx="3.75" ry="3.75" />
<text x="96.75" y="22.5" text-anchor="middle" class="profile">Profiled Resource</text>
</g>
</g>
</svg>
