<?xml version="1.0"?>
<?xml-stylesheet type="text/css" href="FragGraph.css" ?>
<!DOCTYPE svg PUBLIC "-//W3C//DTD SVG 1.1//EN" "http://www.w3.org/Graphics/SVG/1.1/DTD/svg11.dtd">
<svg xmlns="http://www.w3.org/2000/svg" version="1.1" width="432.37" height="311.25">
<defs>
<marker id="arrowStart" markerWidth="3.75" markerHeight="3.75" markerUnits="px" refX="1.88" refY="1.88">
<circle class="connector" cx="1.88" cy="1.88" r="1.88" />
</marker>
<marker id="arrowEnd" markerWidth="7.5" markerHeight="7.5" markerUnits="px" refX="7.5" refY="3.75">
<polygon class="connector" points="0 0 7.5 3.75 0 7.5" />
</marker>
</defs>
<g>
<g transform="translate(7.5 7.5)">
<a href="StructureDefinition-BiRadBreastCompositionFragment.html" target="_top">
<rect class="focus" x="0" y="0" width="162" height="33.75" rx="3.75" ry="3.75" />
</a>
<a href="StructureDefinition-BiRadBreastCompositionFragment.html" target="_top">
<text x="81" y="22.5" text-anchor="middle" class="focus">BiRad Fragment</text>
</a>
</g>
<line class="connector" marker-end="url(#arrowEnd)" x1="199.5" y1="33.75" x2="259.5" y2="33.75" />
<text x="203.25" y="30" text-anchor="right" class="lhsText">0..*</text>
<line class="connector" marker-end="url(#arrowEnd)" x1="199.5" y1="93.75" x2="259.5" y2="93.75" />
<text x="203.25" y="90" text-anchor="right" class="lhsText">0..*</text>
<line class="connector" marker-end="url(#arrowEnd)" x1="199.5" y1="153.75" x2="259.5" y2="153.75" />
<text x="203.25" y="150" text-anchor="right" class="lhsText">0..*</text>
<line class="connector" marker-start="url(#arrowStart)" x1="169.5" y1="24.38" x2="199.5" y2="24.38" />
<line class="connector" x1="199.5" y1="24.38" x2="199.5" y2="153.75" />
</g>
<g>
<g transform="translate(259.5 7.5)">
<a href="StructureDefinition-FindingsBiLateralBreast.html" target="_top">
<rect class="profile" x="0" y="0" width="109.5" height="52.5" rx="3.75" ry="3.75" />
</a>
<a href="StructureDefinition-FindingsBiLateralBreast.html" target="_top">
<text x="54.75" y="22.5" text-anchor="middle" class="profile">Findings</text>
</a>
<a href="StructureDefinition-FindingsBiLateralBreast.html" target="_top">
<text x="54.75" y="41.25" text-anchor="middle" class="profile">BiLateral</text>
</a>
</g>
</g>
<g>
<g transform="translate(259.5 67.5)">
<a href="StructureDefinition-FindingsLeftBreast.html" target="_top">
<rect class="profile" x="0" y="0" width="130.5" height="52.5" rx="3.75" ry="3.75" />
</a>
<a href="StructureDefinition-FindingsLeftBreast.html" target="_top">
<text x="65.25" y="22.5" text-anchor="middle" class="profile">Findings</text>
</a>
<a href="StructureDefinition-FindingsLeftBreast.html" target="_top">
<text x="65.25" y="41.25" text-anchor="middle" class="profile">Left Breast</text>
</a>
</g>
</g>
<g>
<g transform="translate(259.5 127.5)">
<a href="StructureDefinition-FindingsRightBreast.html" target="_top">
<rect class="profile" x="0" y="0" width="141" height="52.5" rx="3.75" ry="3.75" />
</a>
<a href="StructureDefinition-FindingsRightBreast.html" target="_top">
<text x="70.5" y="22.5" text-anchor="middle" class="profile">Findings</text>
</a>
<a href="StructureDefinition-FindingsRightBreast.html" target="_top">
<text x="70.5" y="41.25" text-anchor="middle" class="profile">Right Breast</text>
</a>
</g>
</g>
<g>
<g transform="translate(7.5 262.5)">
<rect class="focus" x="0" y="0" width="67.5" height="33.75" rx="3.75" ry="3.75" />
<text x="33.75" y="22.5" text-anchor="middle" class="focus">Focus</text>
</g>
<g transform="translate(82.5 262.5)">
<rect class="profile" x="0" y="0" width="193.5" height="33.75" rx="3.75" ry="3.75" />
<text x="96.75" y="22.5" text-anchor="middle" class="profile">Profiled Resource</text>
</g>
</g>
</svg>
